<svg width="16" height="16" viewBox="0 0 16 16" fill="none" xmlns="http://www.w3.org/2000/svg">
<path fill-rule="evenodd" clip-rule="evenodd" d="M8.00001 3.00073C8.5523 3.00073 9.00001 3.44845 9.00001 4.00073V6.95494L11.6484 5.95788C12.1653 5.76329 12.742 6.02455 12.9366 6.54141C13.1312 7.05828 12.8699 7.63504 12.3531 7.82963L9.5304 8.8923L11.2324 11.4442C11.5388 11.9037 11.4148 12.5246 10.9553 12.831C10.4958 13.1375 9.87494 13.0134 9.5685 12.5539L8.00001 10.2022L6.43153 12.5539C6.12508 13.0134 5.50419 13.1375 5.04472 12.831C4.58525 12.5246 4.4612 11.9037 4.76764 11.4442L6.46963 8.8923L3.64696 7.82963C3.13009 7.63504 2.86883 7.05828 3.06342 6.54141C3.25801 6.02455 3.83476 5.76329 4.35163 5.95788L7.00001 6.95494V4.00073C7.00001 3.44845 7.44773 3.00073 8.00001 3.00073Z" fill="#929191"/>
</svg>
