<svg width="159" height="26" viewBox="0 0 159 26" fill="none" xmlns="http://www.w3.org/2000/svg">
<path d="M31 1V20.6235H34.3991V3.65412H40.4668V20.6235H43.8659V1H31Z" fill="black"/>
<path d="M49.7544 6.42118H46.6643V24.7176H50.0072V18.9576C50.85 20.2282 52.086 20.9059 53.5187 20.9059C56.7773 20.9059 59.0246 18.28 59.0246 13.5082C59.0246 8.76471 56.8335 6.13882 53.6872 6.13882C52.1141 6.13882 50.8219 6.87294 49.9229 8.25647L49.7544 6.42118ZM52.6759 18.2518C50.9061 18.2518 50.0072 16.8118 50.0072 13.5365C50.0072 10.2329 50.9623 8.79294 52.8445 8.79294C54.6704 8.79294 55.5693 10.2329 55.5693 13.5082C55.5693 16.8118 54.6142 18.2518 52.6759 18.2518Z" fill="black"/>
<path d="M71.684 10.9388C71.684 7.49412 69.9423 6.19529 66.4028 6.19529C64.1836 6.19529 62.4419 6.90118 61.4306 7.49412V10.2894C62.3295 9.61177 64.2959 8.87765 66.0095 8.87765C67.6107 8.87765 68.3411 9.44235 68.3411 10.9671V11.7576H67.8074C62.6947 11.7576 60.4193 13.4518 60.4193 16.3318C60.4193 19.2118 62.161 20.8212 64.7454 20.8212C66.7118 20.8212 67.5546 20.1718 68.2007 19.4941H68.3411C68.3692 19.8612 68.4816 20.3412 68.5939 20.6235H71.8526C71.7402 19.4659 71.684 18.3082 71.684 17.1506V10.9388ZM68.3411 17.2353C67.9197 17.8565 67.1332 18.3647 65.9533 18.3647C64.5488 18.3647 63.8465 17.5741 63.8465 16.36C63.8465 14.7506 64.9982 14.1576 67.8636 14.1576H68.3411V17.2353Z" fill="black"/>
<path d="M82.6588 20.6235H86.4512L81.0857 13.0847L85.8051 6.42118H82.4341L77.7147 13.0847V6.42118H74.3718V20.6235H77.7147V13.7624L82.6588 20.6235Z" fill="black"/>
<path d="M97.6586 9.07529V6.42118H86.4501V9.07529H90.3829V20.6235H93.7258V9.07529H97.6586Z" fill="black"/>
<path d="M99.6377 6.42118V20.6235H102.615L107.728 11.8424V20.6235H110.959V6.42118H107.981L102.868 15.2024V6.42118H99.6377Z" fill="black"/>
<path d="M122.053 20.6235H125.845L120.48 13.0847L125.199 6.42118H121.828L117.109 13.0847V6.42118H113.766V20.6235H117.109V13.7624L122.053 20.6235Z" fill="black"/>
<path d="M128.786 25C131.905 25 133.056 22.7694 134.011 19.8612L138.422 6.42118H135.191L132.073 17.0941L128.955 6.42118H125.444L130.303 21.2447C129.938 21.9224 129.404 22.3459 128.477 22.3459C127.859 22.3459 127.326 22.1482 126.96 21.7812V24.52C126.96 24.52 127.466 25 128.786 25Z" fill="black"/>
<path d="M151.741 20.6235H155L154.944 6.42118H150.365L147.303 15.88L144.55 6.42118H139.69V20.6235H142.527V10.0071L145.589 20.6235H148.314L151.741 10.0071V20.6235Z" fill="black"/>
<path fill-rule="evenodd" clip-rule="evenodd" d="M13 26C20.1797 26 26 20.1797 26 13C26 5.8203 20.1797 0 13 0C5.8203 0 0 5.8203 0 13C0 20.1797 5.8203 26 13 26ZM13.2117 8.02778H14.3816V20.9861H17V6H13.1978C9.36769 6 7.34819 7.97222 7.34819 10.8611C7.34819 13.1667 8.44847 14.5278 10.4123 15.9306L7 21H9.84123L13.6435 15.3333L12.3203 14.4444C10.7187 13.3611 9.93872 12.5139 9.93872 10.7083C9.93872 9.11111 11.0669 8.02778 13.2117 8.02778Z" fill="black"/>
</svg>
